<svg xmlns="http://www.w3.org/2000/svg" width="14" height="14" viewBox="0 0 14 14" fill="none">
  <g clip-path="url(#clip0_23_2159)">
    <path d="M7.31874 0.592896C7.21843 0.269165 6.78174 0.269165 6.68144 0.592896L5.34129 4.91841C5.29643 5.06318 5.16778 5.1612 5.02263 5.1612H0.685798C0.361219 5.1612 0.226266 5.59679 0.488856 5.79686L3.99743 8.47017C4.11486 8.55963 4.164 8.71825 4.11914 8.86301L2.77899 13.1885C2.67869 13.5123 3.032 13.7815 3.29459 13.5814L6.80315 10.9081C6.92059 10.8186 7.07962 10.8186 7.19701 10.9081L10.7056 13.5814C10.9682 13.7815 11.3215 13.5123 11.2212 13.1885L9.88109 8.86301C9.83622 8.71825 9.88536 8.55963 10.0027 8.47017L13.5114 5.79686C13.7739 5.59679 13.639 5.1612 13.3144 5.1612H8.9776C8.83242 5.1612 8.70376 5.06318 8.65889 4.91841L7.31874 0.592896Z" fill="#151515" stroke="#151515" stroke-width="0.7"/>
  </g>
  <defs>
    <clipPath id="clip0_23_2159">
      <rect width="14" height="14" fill="white"/>
    </clipPath>
  </defs>
</svg>